<?xml version="1.0" standalone="no"?>
<!DOCTYPE svg PUBLIC "-//W3C//DTD SVG 20010904//EN"
 "http://www.w3.org/TR/2001/REC-SVG-20010904/DTD/svg10.dtd">
<svg version="1.0" xmlns="http://www.w3.org/2000/svg"
 width="200.000000pt" height="200.000000pt" viewBox="0 0 200.000000 200.000000"
 preserveAspectRatio="xMidYMid meet">
<metadata>
Created by potrace 1.11, written by Peter Selinger 2001-2013
</metadata>
<g transform="translate(0.000000,200.000000) scale(0.100000,-0.100000)"
fill="#000000" stroke="none">
<path d="M307 1752 c-10 -4 -26 -21 -37 -36 -18 -28 -19 -58 -19 -714 0 -471
4 -691 11 -708 18 -40 81 -63 162 -61 79 3 127 24 145 64 7 15 11 118 11 283
l0 260 68 0 69 0 139 -276 c76 -152 153 -292 170 -310 27 -30 38 -34 80 -34
131 0 239 124 190 218 -9 17 -16 33 -16 35 0 3 19 7 43 11 46 8 107 43 143 85
41 46 50 95 49 246 -1 156 -12 188 -66 200 -79 18 -97 -19 -95 -190 2 -137 -7
-175 -43 -195 -30 -15 -47 -12 -78 14 l-28 24 -1 145 c-1 79 -4 150 -8 156 -4
6 6 30 23 53 54 73 76 157 76 288 -1 257 -95 378 -343 437 -49 12 -618 16
-645 5z m591 -297 c88 -53 101 -258 20 -325 -36 -29 -97 -40 -222 -40 l-116 0
0 196 0 196 143 -4 c119 -3 147 -7 175 -23z"/>
<path d="M1638 1475 c-75 -41 -28 -157 57 -141 40 8 54 24 62 69 4 29 1 40
-20 61 -29 29 -59 32 -99 11z"/>
<path d="M1385 1234 c-23 -22 -27 -31 -22 -62 11 -66 75 -93 127 -53 19 15 25
29 25 61 0 75 -74 106 -130 54z"/>
<path d="M1625 1234 c-23 -22 -27 -31 -22 -62 8 -50 41 -76 87 -68 48 7 73 40
66 86 -11 68 -80 92 -131 44z"/>
<path d="M1626 995 l-27 -25 3 -225 c3 -249 4 -251 71 -262 30 -5 40 -1 61 22
l26 28 0 217 c0 217 0 217 -25 244 -31 34 -73 34 -109 1z"/>
</g>
</svg>
