<svg version="1.0" xmlns="http://www.w3.org/2000/svg" width="266.667" height="266.667" viewBox="0 0 200 200"><path d="M30.7 24.8c-1 .4-2.6 2.1-3.7 3.6-1.8 2.8-1.9 5.8-1.9 71.4 0 47.1.4 69.1 1.1 70.8 1.8 4 8.1 6.3 16.2 6.1 7.9-.3 12.7-2.4 14.5-6.4.7-1.5 1.1-11.8 1.1-28.3v-26h13.7l13.9 27.6c7.6 15.2 15.3 29.2 17 31 2.7 3 3.8 3.4 8 3.4 13.1 0 23.9-12.4 19-21.8-.9-1.7-1.6-3.3-1.6-3.5 0-.3 1.9-.7 4.3-1.1 4.6-.8 10.7-4.3 14.3-8.5 4.1-4.6 5-9.5 4.9-24.6-.1-15.6-1.2-18.8-6.6-20-7.9-1.8-9.7 1.9-9.5 19 .2 13.7-.7 17.5-4.3 19.5-3 1.5-4.7 1.2-7.8-1.4l-2.8-2.4-.1-14.5c-.1-7.9-.4-15-.8-15.6-.4-.6.6-3 2.3-5.3 5.4-7.3 7.6-15.7 7.6-28.8-.1-25.7-9.5-37.8-34.3-43.7-4.9-1.2-61.8-1.6-64.5-.5zm59.1 29.7c8.8 5.3 10.1 25.8 2 32.5-3.6 2.9-9.7 4-22.2 4H58V51.8l14.3.4c11.9.3 14.7.7 17.5 2.3zM163.8 52.5c-7.5 4.1-2.8 15.7 5.7 14.1 4-.8 5.4-2.4 6.2-6.9.4-2.9.1-4-2-6.1-2.9-2.9-5.9-3.2-9.9-1.1z"/><path d="M138.5 76.6c-2.3 2.2-2.7 3.1-2.2 6.2 1.1 6.6 7.5 9.3 12.7 5.3 1.9-1.5 2.5-2.9 2.5-6.1 0-7.5-7.4-10.6-13-5.4zM162.5 76.6c-2.3 2.2-2.7 3.1-2.2 6.2.8 5 4.1 7.6 8.7 6.8 4.8-.7 7.3-4 6.6-8.6-1.1-6.8-8-9.2-13.1-4.4zM162.6 100.5l-2.7 2.5.3 22.5c.3 24.9.4 25.1 7.1 26.2 3 .5 4 .1 6.1-2.2l2.6-2.8V125c0-21.7 0-21.7-2.5-24.4-3.1-3.4-7.3-3.4-10.9-.1z"/></svg>
